<svg width="60" height="60" viewBox="0 0 60 60" xmlns="http://www.w3.org/2000/svg">
  <g id="eslint-16_svgrepo.com">
    <path
      id="Vector"
      fill-rule="evenodd"
      clip-rule="evenodd"
      d="M17.5163 3.99375C16.0425 4.3575 14.6363 5.25 13.59 6.48C12.9225 7.2675 1.87125 26.6438 1.5525 27.5888C1.02375 29.1563 1.02375 30.8438 1.5525 32.4113C1.87125 33.3563 12.9225 52.7325 13.59 53.52C14.3063 54.3638 15.075 54.9638 16.05 55.4438C17.76 56.28 16.9762 56.2312 29.1487 56.2725C36.1725 56.2987 40.3538 56.2763 41.1038 56.205C43.3725 56.0025 44.985 55.1888 46.3838 53.5463C47.07 52.7438 58.1175 33.39 58.4475 32.4113C58.9725 30.8663 58.9725 29.1375 58.4512 27.5963C58.1175 26.61 47.0738 7.26 46.3838 6.45375C45.4238 5.32875 44.3812 4.61625 42.9 4.08375L42.2512 3.85125L30.2513 3.8325C18.9713 3.81375 18.2063 3.825 17.5163 3.99375ZM41.4787 9.58875C41.6812 9.69375 41.9287 9.8625 42.0225 9.9675C42.1162 10.0725 44.67 14.4975 47.6962 19.8C53.1525 29.3513 53.2012 29.4413 53.2012 29.9925C53.2012 30.5438 53.1525 30.6337 47.655 40.2562C44.6025 45.5925 42.0262 50.0325 41.9287 50.1188C41.3512 50.625 41.955 50.5988 30 50.5988C19.2975 50.5988 18.8775 50.5913 18.5213 50.4113C18.3188 50.3063 18.0713 50.1375 17.9775 50.0325C17.8838 49.9275 15.33 45.5025 12.3037 40.2C6.81 30.5813 6.79875 30.5625 6.79875 29.9963C6.79875 29.43 6.81 29.4075 12.3075 19.7888C15.3338 14.49 17.8875 10.0688 17.9813 9.96375C18.075 9.8625 18.3075 9.6975 18.4988 9.5925C18.8363 9.41625 19.3425 9.40875 29.9775 9.405C40.7063 9.40125 41.1225 9.405 41.4787 9.58875ZM28.9875 16.2113C28.6238 16.2563 27.9713 16.4213 27.5363 16.575C26.7338 16.86 21.1688 19.965 20.0513 20.7525C18.525 21.825 17.43 23.4863 17.0475 25.3088C16.8338 26.3325 16.8338 33.6675 17.0475 34.6913C17.43 36.5138 18.525 38.175 20.0513 39.2475C21.1538 40.0237 26.7338 43.14 27.5213 43.4175C29.1038 43.98 30.8925 43.98 32.4675 43.4213C33.2025 43.1625 38.6512 40.1362 39.9 39.2925C40.98 38.5688 42.0037 37.2975 42.54 36.0187C43.0537 34.8 43.0987 34.32 43.0987 30C43.0987 25.68 43.0537 25.2 42.54 23.9813C42.0037 22.7025 40.98 21.4313 39.9 20.7075C38.6625 19.8713 33.2025 16.8375 32.4787 16.5825C32.0512 16.4288 31.335 16.26 30.8812 16.2038C29.9662 16.0875 29.9288 16.0875 28.9875 16.2113ZM33.525 23.4863C35.1525 24.4163 36.6187 25.2713 36.7837 25.3875C36.9487 25.5038 37.1775 25.7963 37.29 26.0325C37.4925 26.445 37.5 26.6175 37.5 30C37.5 33.3825 37.4925 33.555 37.29 33.9675C37.1775 34.2037 36.9487 34.4962 36.7837 34.6125C36.6187 34.7287 35.1525 35.5838 33.525 36.5138C30.6525 38.1525 30.5513 38.2013 29.9963 38.2013C29.445 38.2013 29.3475 38.1525 26.5388 36.5438C22.9125 34.4663 22.9688 34.5038 22.7138 33.975C22.5075 33.555 22.5 33.4013 22.5 30C22.5 26.5988 22.5075 26.445 22.7138 26.025C22.9688 25.4963 22.9125 25.5338 26.5388 23.4563C29.3475 21.8475 29.445 21.7988 29.9963 21.7988C30.5513 21.7988 30.6525 21.8475 33.525 23.4863Z"
      fill="#F6FBF4"
    />
  </g>
</svg>