<svg width="60" height="60" viewBox="0 0 60 60" xmlns="http://www.w3.org/2000/svg">
  <g id="express_svgrepo.com" clip-path="url(#clip0_1_269)">
    <path
      id="Vector"
      d="M60 46.47C59.1268 46.8003 58.1628 46.7996 57.2901 46.468C56.4173 46.1364 55.6961 45.4968 55.2625 44.67L46.6375 32.7425L45.3875 31.075L35.38 44.685C34.9725 45.4771 34.2904 46.0937 33.4613 46.4195C32.6321 46.7452 31.7128 46.7579 30.875 46.455L43.77 29.155L31.775 13.5275C32.6375 13.2167 33.5807 13.2126 34.4459 13.5158C35.3111 13.8191 36.0453 14.4112 36.525 15.1925L45.465 27.2675L54.455 15.2425C54.8657 14.4645 55.548 13.8645 56.3721 13.5566C57.1962 13.2487 58.1048 13.2543 58.925 13.5725L54.27 19.75L47.965 27.9575C47.7899 28.1137 47.6498 28.3051 47.5539 28.5192C47.4579 28.7334 47.4083 28.9654 47.4083 29.2C47.4083 29.4346 47.4579 29.6666 47.5539 29.8807C47.6498 30.0949 47.7899 30.2863 47.965 30.4425L59.975 46.4725L60 46.47ZM0.00499947 28.94L1.055 23.7525C3.94 13.495 15.7 9.2275 23.79 15.5775C28.5275 19.3 29.71 24.57 29.4775 30.51H2.79C2.3575 41.1175 10.0125 47.5225 19.8 44.25C21.3866 43.6789 22.8069 42.7231 23.9334 41.4683C25.0599 40.2135 25.8576 38.6988 26.255 37.06C26.7725 35.395 27.625 35.11 29.19 35.59C28.9292 37.621 28.2113 39.5663 27.0902 41.2798C25.9691 42.9933 24.474 44.4302 22.7175 45.4825C19.816 47.0696 16.4871 47.6986 13.2066 47.2797C9.92605 46.8607 6.862 45.4153 4.4525 43.15C2.07007 40.4685 0.63019 37.0812 0.352499 33.505C0.352499 32.9175 0.152499 32.3675 0.0174995 31.84C0.00532955 30.8742 -0.00050391 29.9084 -5.26881e-07 28.9425L0.00499947 28.94ZM2.8225 28.225H26.9575C26.8075 20.535 21.955 15.08 15.4825 15.03C8.2775 14.93 3.1225 20.265 2.805 28.19L2.8225 28.225Z"
      fill="#F6FBF4"
    />
  </g>
  <defs>
    <clipPath id="clip0_1_269">
      <rect width="60" height="60" fill="white" />
    </clipPath>
  </defs>
</svg>