<svg width="60" height="60" viewBox="0 0 60 60" xmlns="http://www.w3.org/2000/svg">
  <path
    d="M32.7905 18.4261C32.0049 18.4589 30.6774 18.6698 30.6774 18.7589C30.6774 18.7959 31.613 19.2647 31.6847 19.2647C31.7503 19.2647 32.8364 19.8066 33.0778 19.9566C33.3928 20.1581 33.6183 20.3409 33.5522 20.3409C33.51 20.3409 32.3949 19.9092 31.9721 19.7278C31.628 19.583 30.1978 19.1564 29.5017 18.9919C29.1249 18.9038 28.9655 18.8709 28.3247 18.7538C27.3797 18.5813 26.2683 18.5709 25.785 18.7298C25.0927 18.9548 24.9371 19.2314 24.9371 20.2514C24.9371 20.8139 24.9647 21.0516 25.0871 21.5569C25.1405 21.7767 25.2905 22.26 25.3603 22.4231C25.3805 22.4747 25.4461 22.6341 25.501 22.7747C25.5577 22.9139 25.7283 23.2744 25.8783 23.5692C26.7207 25.2413 27.9821 26.6348 29.76 27.8611C30.3207 28.2455 31.8441 28.9744 32.4553 29.1488C32.611 29.1909 32.6625 29.2786 32.536 29.2786C32.3953 29.2786 31.1063 28.9233 30.8424 28.8117C30.742 28.7672 30.64 28.7262 30.5367 28.6889C29.6194 28.3191 28.4475 27.5573 27.4786 26.6911C26.4168 25.7466 25.568 24.587 24.9886 23.2894C24.6169 22.4503 24.3642 21.473 24.3019 20.6213C24.2653 20.1342 24.2269 20.017 24.1003 20.0227C24.0582 20.0227 23.6574 20.0081 23.2158 19.9842C22.0149 19.9327 20.3742 20.0648 18.75 20.3452C15.6446 20.8739 12.2939 22.0955 8.84581 23.9573C8.27237 24.2678 7.70583 24.5909 7.14659 24.9263C7.08096 24.9647 6.87378 25.0908 6.68534 25.208C6.49831 25.3252 6.27706 25.4555 6.19643 25.5066C6.01831 25.6111 4.04675 26.9494 3.8105 27.127C3.72237 27.1913 3.47721 27.3741 3.2705 27.5245C2.3344 28.2164 0.296745 29.8791 0.179558 30.0478C0.122839 30.1322 0.21237 30.1744 0.333308 30.1322C0.395651 30.1078 0.555026 30.075 0.682995 30.0572C0.814714 30.0366 1.15362 29.9489 1.43534 29.8556C1.72128 29.7656 2.02878 29.6723 2.1169 29.6484C2.8144 29.4853 3.09659 29.4286 3.5044 29.3681C3.68956 29.3447 3.96237 29.3025 4.11612 29.2786C6.02768 28.9983 6.93987 28.9289 7.79112 28.9927C9.64034 29.1427 11.4094 29.4581 12.4219 29.8167C13.1799 30.0895 14.7216 30.923 15.3994 31.4227C15.7913 31.718 17.0508 32.9719 17.3292 33.3506C17.5449 33.6511 17.7849 33.9131 17.8416 33.9131C17.8603 33.9131 17.8838 32.9569 17.8894 31.7925L17.9021 29.6775L20.378 29.6634C22.3261 29.6541 22.8661 29.6686 22.8994 29.7103C22.9467 29.7713 23.0602 29.9728 23.4319 30.6591C23.7853 31.32 23.9592 31.6388 24.0675 31.8291C24.1238 31.9336 24.2541 32.1755 24.3642 32.3677C24.4664 32.5598 24.6586 32.9152 24.7908 33.1584C24.9225 33.4022 25.0303 33.6089 25.0303 33.6178C25.0303 33.66 25.2244 33.9131 25.2577 33.9131C25.276 33.9131 25.3233 33.8414 25.3561 33.7631C25.3932 33.6788 25.4921 33.4917 25.5727 33.3506C25.6571 33.21 25.8071 32.9353 25.9111 32.7431C26.0157 32.5509 26.1567 32.2838 26.2317 32.1572C26.4385 31.7869 26.6546 31.3861 26.8341 31.0584C27.0245 30.6964 27.2204 30.3373 27.4219 29.9813C27.4824 29.8641 27.5578 29.7413 27.5813 29.7103C27.6197 29.6681 28.1742 29.6536 30.1796 29.6625L32.7249 29.677L32.7389 33.81C32.7483 37.0655 32.7614 37.9373 32.8092 37.9373C32.8364 37.9317 33.0249 37.8234 33.2189 37.688C33.4917 37.4977 33.6089 37.3805 33.7355 37.1644C34.0228 36.6736 34.8375 35.9011 35.3832 35.6006C36.0462 35.234 36.7594 34.9665 37.5 34.8066C38.2524 34.6472 38.4741 34.6238 40.1827 34.5628C43.3008 34.455 43.7621 34.4363 43.786 34.4128C43.8005 34.4002 43.7588 34.2773 43.6964 34.1363C43.6308 34.0008 43.5183 33.7481 43.4381 33.5798C43.1414 32.9391 43.1414 32.7244 43.4527 32.4098C43.6636 32.1895 44.2088 31.9973 45.1463 31.8108C45.3005 31.778 45.4946 31.7358 45.5728 31.7086C45.6539 31.6847 45.7524 31.6664 45.7946 31.6664C45.9136 31.6664 46.8492 31.4372 47.0471 31.3622C47.183 31.3059 47.9171 31.1466 48.7922 30.9778C49.1728 30.9028 50.1619 30.7069 50.9803 30.5419C51.4983 30.4397 52.0388 30.3314 52.1794 30.3038C52.3205 30.2766 52.5239 30.2344 52.6266 30.2161C52.7306 30.1927 52.8661 30.1631 52.9322 30.1538C52.9978 30.1411 53.3278 30.075 53.6625 30.0056C53.9135 29.9506 54.1657 29.9017 54.4191 29.8589C54.6553 29.8369 56.4296 29.4103 56.8378 29.2786C57.488 29.0677 57.6802 28.9838 58.0903 28.7091C58.5314 28.4091 58.6542 28.2459 59.0916 27.3741C59.5772 26.4056 59.6466 26.2425 59.7839 25.8342C59.9949 25.1845 59.9817 24.937 59.7127 24.6642C59.5238 24.4777 59.1192 24.2855 58.8244 24.2433C58.6031 24.2156 58.5736 24.2245 58.4658 24.3417C58.3997 24.412 58.343 24.4959 58.343 24.525C58.343 24.5672 58.268 24.7725 58.0571 25.2778C58.0369 25.3294 57.9952 25.4555 57.9619 25.5577C57.9347 25.6622 57.8775 25.807 57.8447 25.8858C57.7842 26.017 57.7791 25.9936 57.8025 25.6294C57.8264 25.2684 57.8869 24.9647 58.0242 24.5048C58.0482 24.4172 58.081 24.2672 58.0941 24.1734L58.1175 24.0047L57.6286 23.8092C57.12 23.5983 56.6817 23.4155 56.4296 23.302C56.3433 23.2711 56.1328 23.1867 55.9589 23.1206C55.7794 23.055 55.5633 22.9706 55.4738 22.9284C55.3106 22.8562 55.1457 22.7879 54.9792 22.7236C54.6642 22.6008 53.5636 22.2272 52.6261 21.9323C52.0003 21.7404 51.3735 21.5514 50.746 21.3652C50.5251 21.309 50.3053 21.2483 50.0869 21.1833C50.0119 21.1631 49.8267 21.112 49.6857 21.0755C48.8578 20.8467 48.6422 20.7895 48.345 20.7052C48.1813 20.658 48.0165 20.6143 47.851 20.5739C47.7614 20.5519 47.5182 20.4952 47.311 20.4436C46.9482 20.3541 45.4285 20.0044 44.6044 19.8155L44.0166 19.68C43.9125 19.6566 43.726 19.6195 43.5938 19.5956C43.4658 19.5722 43.1981 19.5206 43.0041 19.4784C42.8119 19.4423 42.398 19.3613 42.0867 19.3102C41.7774 19.2553 41.4056 19.1897 41.2646 19.1658C39.9647 18.9314 39.8771 18.9183 37.5474 18.6605C36.1121 18.4973 34.1817 18.36 33.7116 18.3839C33.6366 18.3839 33.2194 18.4022 32.7905 18.4261ZM27.3507 20.7328C28.5938 21.1359 29.8022 21.6834 30.63 22.2178C31.2891 22.643 32.1075 23.3222 32.3292 23.6259L32.4225 23.7525L32.2449 23.6827C32.1464 23.6405 31.9392 23.5514 31.7836 23.4759C30.9558 23.0916 30.8663 23.0602 30.8663 23.1445C30.8663 23.1666 31.0585 23.4759 31.2891 23.8219C31.5253 24.1734 31.7119 24.4828 31.7119 24.5109C31.7119 24.5344 31.6242 24.4959 31.5141 24.4209C31.0913 24.1313 30.0985 23.7141 30.0422 23.7984C30.0277 23.8219 30.3328 24.21 30.7252 24.6642C31.1096 25.1184 31.4302 25.5066 31.4302 25.5361C31.4302 25.6055 31.3552 25.5961 30.998 25.4644C30.63 25.3345 30.5367 25.32 30.5367 25.4095C30.5367 25.47 31.3313 26.5411 31.6463 26.9109C31.7358 27.0136 31.8071 27.1125 31.8071 27.1359C31.8071 27.248 30.705 26.5322 29.925 25.9148C28.8094 25.0252 27.7313 23.8313 27.1641 22.8445C26.6967 22.0383 26.5374 21.6047 26.5374 21.1266C26.5374 20.8467 26.5505 20.79 26.6546 20.6906C26.7155 20.6269 26.7919 20.5734 26.8196 20.5734C26.8467 20.5734 27.083 20.6452 27.3507 20.7328ZM42.2058 22.3992C42.6563 22.4798 43.2731 22.5863 43.5699 22.6392C43.8666 22.6908 44.2289 22.7508 44.37 22.7747C44.5111 22.8023 44.7122 22.8389 44.8167 22.8623C44.9199 22.8863 45.1228 22.9284 45.2639 22.9613C45.7289 23.0644 45.8424 23.0878 46.6041 23.2655C47.4225 23.4577 47.6021 23.4942 47.851 23.5453C48.0633 23.5875 48.2738 23.6681 48.2738 23.7047C48.2738 23.7197 48.12 23.8092 47.9316 23.9063C47.5453 24.0984 47.4647 24.113 45.8752 24.1734C44.7933 24.2194 44.2144 24.2063 43.6871 24.1219C42.623 23.9578 42.0741 23.6592 41.6457 23.0128C41.4957 22.793 41.3967 22.7269 41.0522 22.6392C40.9257 22.6008 40.7321 22.5492 40.6294 22.5164C40.5249 22.4836 40.3472 22.432 40.2338 22.3992C39.8949 22.3116 40.0875 22.26 40.7705 22.26C41.2406 22.26 41.5707 22.2914 42.2058 22.3992ZM47.8655 28.9383C47.827 28.9475 47.7868 28.9475 47.7483 28.9383C47.7155 28.9233 47.7389 28.9144 47.805 28.9144C47.8692 28.9144 47.8931 28.9238 47.866 28.9378L47.8655 28.9383ZM47.6625 28.9931C47.6625 29.0166 47.6077 29.0494 47.536 29.0644C47.3897 29.1009 46.8164 29.2659 46.628 29.3259C46.5619 29.3498 46.3496 29.4159 46.1574 29.4713C45.6722 29.6119 44.4966 29.9944 44.1816 30.1172C43.5881 30.3422 42.195 31.0805 41.9991 31.2783C41.7061 31.5638 41.6161 31.8713 41.6602 32.4609C41.6728 32.7098 41.7061 33.0234 41.7352 33.1584C41.7919 33.4538 41.7586 33.5339 41.6457 33.3877C41.5322 33.2428 41.2922 32.7192 41.2224 32.4609C41.1839 32.3456 41.1422 32.19 41.1183 32.115C41.0339 31.8492 41.0667 31.5342 41.1989 31.3439C41.3766 31.0711 42.0174 30.637 42.7697 30.2766C43.1269 30.1027 44.1666 29.7469 45.1228 29.467C45.315 29.4108 45.5274 29.3447 45.5935 29.3264C46.2708 29.0972 47.6625 28.8773 47.6625 28.9931ZM32.7816 29.3077C32.7666 29.3208 32.7249 29.3264 32.6916 29.3114C32.6531 29.2988 32.6682 29.2842 32.7192 29.2842C32.7722 29.2786 32.7999 29.2936 32.7816 29.3077Z"
    fill="#F6FBF4"
  />
  <path
    d="M22.9139 38.3587V41.6344H25.2576C27.0173 41.6344 27.614 41.6203 27.6562 41.5781C27.7275 41.5078 27.7425 35.0831 27.6708 35.0831C27.6473 35.0831 27.6145 35.1197 27.5995 35.1619C27.5808 35.204 27.0684 36.0042 26.4567 36.9398C25.4883 38.4192 25.2192 38.7797 25.2192 38.5969C25.2192 38.564 23.6151 36.0609 23.205 35.4562C23.15 35.378 23.1016 35.2954 23.0601 35.2092C23.0217 35.138 22.9758 35.0826 22.9523 35.0826C22.9322 35.0826 22.9139 36.5569 22.9139 38.3587Z"
    fill="#F6FBF4"
  />
</svg>