<svg width="61" height="60" viewBox="0 0 61 60" xmlns="http://www.w3.org/2000/svg">
  <g id="mongodb_svgrepo.com">
    <path
      id="Vector"
      d="M30.1644 43.4719C30.1644 43.4719 30.1644 24.045 30.8094 24.0469C31.3081 24.0469 31.9569 49.1062 31.9569 49.1062C31.0644 49.0012 30.1644 44.9831 30.1644 43.4719ZM42.6669 24.2719C40.9438 16.7419 37.1694 10.2675 31.9644 5.27062L31.9513 5.25937C31.3175 4.29187 30.7381 3.18187 30.2731 2.01187L30.2281 1.88437C30.23 1.92187 30.23 1.96687 30.23 2.01187C30.23 3.07124 29.7556 4.01812 29.0075 4.65374L29.0019 4.65749C22.3006 10.3462 18.0369 18.7294 17.8963 28.11V28.1344C17.8944 28.2506 17.8944 28.3875 17.8944 28.5244C17.8944 37.8187 22.3663 46.0687 29.2756 51.24L29.3488 51.2925L29.5119 51.4106C29.8131 53.6406 30.0706 55.8756 30.2844 58.1156H31.4113C31.7225 55.32 32.1425 52.8731 32.6919 50.4731L32.6056 50.9212C33.3481 50.4056 33.9969 49.8712 34.6025 49.2919L34.5969 49.2975C39.8488 44.4281 43.1263 37.4906 43.1263 29.79C43.1263 29.6756 43.1263 29.5631 43.1244 29.4487V29.4656C43.1188 27.6262 42.9519 25.8281 42.635 24.0825L42.6631 24.2681L42.6669 24.2719Z"
      fill="#F6FBF4"
    />
  </g>
</svg>