<svg width="60" height="60" viewBox="0 0 60 60" xmlns="http://www.w3.org/2000/svg">
  <g id="nodejs02_svgrepo.com">
    <g id="5151e0c8492e5103c096af88a51f17e3">
      <path
        id="Vector"
        d="M56.5529 17.3284V42.6541C56.5529 44.2977 55.6686 45.828 54.2476 46.6553L32.3045 59.3251C31.6027 59.7322 30.8066 59.9414 29.9937 59.9414C29.1924 59.9414 28.3942 59.7322 27.6922 59.3251L20.3656 54.9904C19.2727 54.3802 19.806 54.1631 20.1673 54.0378C21.6267 53.5314 21.9219 53.4146 23.4799 52.5305C23.6425 52.4375 23.8568 52.4739 24.0245 52.5707L29.6531 55.9127C29.8572 56.0277 30.1453 56.0277 30.3329 55.9127L52.2778 43.2464C52.4822 43.1297 52.6132 42.8968 52.6132 42.6543V17.3284C52.6132 17.0803 52.4822 16.8486 52.2727 16.7234L30.3368 4.06828C30.1345 3.94992 29.8645 3.94992 29.6609 4.06828L7.72993 16.7269C7.51688 16.8487 7.38247 17.0877 7.38247 17.3284V42.6541C7.38247 42.8966 7.51676 43.1239 7.72864 43.2389L13.7402 46.714C17.0015 48.3432 18.999 46.4228 18.999 44.4926V19.4893C18.999 19.1358 19.283 18.857 19.6364 18.857H22.4193C22.7672 18.857 23.0555 19.1357 23.0555 19.4893V44.4927C23.0555 48.8457 20.6841 51.3428 16.5572 51.3428C15.2897 51.3428 14.29 51.3428 11.502 49.9702L5.74829 46.6553C4.32645 45.8355 3.44696 44.2978 3.44696 42.6541V17.3284C3.44696 15.6827 4.32645 14.1468 5.74829 13.3282L27.6924 0.647579C29.081 -0.137694 30.9277 -0.137694 32.3045 0.647579L54.2476 13.3282C55.6686 14.1502 56.5529 15.6827 56.5529 17.3284ZM37.6372 40.2383C31.0888 40.2383 29.648 38.5921 29.1653 35.3357C29.1094 34.9881 28.8116 34.7292 28.4548 34.7292H25.2549C24.8585 34.7292 24.5405 35.046 24.5405 35.4445C24.5405 39.6117 26.8085 44.5818 37.6372 44.5818C45.4778 44.5818 49.9734 41.4952 49.9734 36.1041C49.9734 30.7576 46.3609 29.3353 38.7575 28.3287C31.0725 27.3117 30.2916 26.788 30.2916 24.9879C30.2916 23.5042 30.9529 21.5214 36.645 21.5214C41.7279 21.5214 43.6018 22.617 44.3724 26.042C44.4402 26.3648 44.7336 26.6004 45.0665 26.6004H48.2784C48.4777 26.6004 48.6669 26.5148 48.8023 26.3727C48.938 26.2227 49.01 26.0273 48.9911 25.8225C48.4941 19.9189 44.5716 17.1689 36.6449 17.1689C29.5891 17.1689 25.3811 20.1471 25.3811 25.1379C25.3811 30.5539 29.5681 32.052 36.3381 32.7202C44.4402 33.5149 45.069 34.6986 45.069 36.293C45.069 39.0585 42.8502 40.2383 37.6372 40.2383Z"
        fill="#F6FBF4"
      />
    </g>
  </g>
</svg>