<svg width="60" height="60" viewBox="0 0 60 60" xmlns="http://www.w3.org/2000/svg">
  <path
    d="M21.4256 58.575C21.4256 59.3662 20.79 60 20.0006 60H5.71313C3.80813 60 3.80813 57.1388 5.71313 57.1388H20.0006C20.7919 57.1388 21.4256 57.7837 21.4256 58.575ZM20.0006 51.4256H17.1394C15.2344 51.4256 15.2344 54.2869 17.1394 54.2869H20.0006C21.9056 54.2869 21.9056 51.4256 20.0006 51.4256ZM5.71313 54.2869H11.4263C13.3313 54.2869 13.3313 51.4256 11.4263 51.4256H5.71313C3.80813 51.4256 3.80813 54.2869 5.71313 54.2869ZM20.0006 45.7125H5.71313C3.80813 45.7125 3.80813 48.5738 5.71313 48.5738H20.0006C21.9056 48.5738 21.9056 45.7125 20.0006 45.7125ZM39.9994 39.9994H14.2856C12.3806 39.9994 12.3806 42.8606 14.2856 42.8606H39.9994C41.9044 42.8606 41.9044 39.9994 39.9994 39.9994ZM5.71313 42.8606H8.57438C10.4794 42.8606 10.4794 39.9994 8.57438 39.9994H5.71313C3.80813 39.9994 3.80813 42.8606 5.71313 42.8606ZM48.5738 34.2862H39.9994C38.0944 34.2862 38.0944 37.1381 39.9994 37.1381H48.5738C50.4788 37.1381 50.4788 34.2862 48.5738 34.2862ZM22.8619 37.1381H34.2881C36.1931 37.1381 36.1931 34.2862 34.2881 34.2862H22.8619C20.9569 34.2862 20.9569 37.1381 22.8619 37.1381ZM5.71313 37.1381H17.1394C19.0444 37.1381 19.0444 34.2862 17.1394 34.2862H5.71313C3.80813 34.2862 3.80813 37.1381 5.71313 37.1381ZM51.4256 28.575H28.5731C26.6681 28.575 26.6681 31.4269 28.5731 31.4269H51.4256C53.3306 31.4269 53.3306 28.575 51.4256 28.575ZM24.2869 30C24.2869 29.2088 23.6419 28.575 22.8619 28.575H14.2875C12.3825 28.575 12.3825 31.4269 14.2875 31.4269H22.8619C23.6438 31.4269 24.2869 30.7894 24.2869 30ZM5.71313 31.425H8.57438C10.4794 31.425 10.4794 28.5731 8.57438 28.5731H5.71313C3.80813 28.5731 3.80813 31.425 5.71313 31.425ZM54.2869 22.8619H39.9994C38.0944 22.8619 38.0944 25.7137 39.9994 25.7137H54.2869C56.1919 25.7137 56.1919 22.8619 54.2869 22.8619ZM5.71313 25.7137H20.0006C21.9056 25.7137 21.9056 22.8619 20.0006 22.8619H5.71313C3.80813 22.8619 3.80813 25.7137 5.71313 25.7137ZM38.5744 18.5738C38.5744 19.3556 39.21 19.9988 39.9994 19.9988H54.2869C56.1919 19.9988 56.1919 17.1375 54.2869 17.1375H39.9994C39.2081 17.1375 38.5744 17.7825 38.5744 18.5738ZM17.1394 17.1394C15.2344 17.1394 15.2344 20.0006 17.1394 20.0006H20.0006C21.9056 20.0006 21.9056 17.1394 20.0006 17.1394H17.1394ZM5.71313 20.0006H11.4263C13.3313 20.0006 13.3313 17.1394 11.4263 17.1394H5.71313C3.80813 17.1394 3.80813 20.0006 5.71313 20.0006ZM47.1394 12.8606C47.1394 13.6425 47.7844 14.2856 48.5756 14.2856H51.4275C53.3325 14.2856 53.3325 11.4244 51.4275 11.4244H48.5756C47.7844 11.4244 47.1506 12.0694 47.1506 12.8606H47.1394ZM44.2875 12.8606C44.2875 12.0694 43.6425 11.4244 42.8625 11.4244H31.4269C29.5219 11.4244 29.5219 14.2856 31.4269 14.2856H42.8531C43.6444 14.2856 44.2875 13.6406 44.2875 12.8606ZM5.71313 14.2875H25.7138C27.6188 14.2875 27.6188 11.4262 25.7138 11.4262H5.71313C3.80813 11.4262 3.80813 14.2875 5.71313 14.2875ZM18.5738 7.13812C18.5738 7.92937 19.2094 8.57437 19.9988 8.57437H48.5738C50.4788 8.57437 50.4788 5.71312 48.5738 5.71312H19.9988C19.2075 5.71312 18.5738 6.35812 18.5738 7.13812ZM5.71313 8.57437H14.2875C16.1925 8.57437 16.1925 5.71312 14.2875 5.71312H5.71313C3.80813 5.71312 3.80813 8.57437 5.71313 8.57437ZM5.71313 2.86125H39.9994C41.9044 2.86125 41.9044 0 39.9994 0H5.71313C3.80813 0 3.80813 2.86125 5.71313 2.86125Z"
    fill="#F6FBF4"
  />
</svg>