<svg width="61" height="60" viewBox="0 0 61 60" xmlns="http://www.w3.org/2000/svg">
  <g id="swagger_svgrepo.com" clip-path="url(#clip0_1_282)">
    <path
      id="Vector"
      d="M30.5 0C13.9569 0 0.5 13.4569 0.5 30C0.5 46.5431 13.9569 60 30.5 60C47.0431 60 60.5 46.5431 60.5 30C60.5 13.4569 47.0431 0 30.5 0ZM30.5 2.86312C45.4906 2.86312 57.6369 15.0113 57.6369 30C57.6369 44.9887 45.4887 57.1369 30.5 57.1369C15.5094 57.1369 3.36312 44.9887 3.36312 30C3.36312 15.0113 15.5113 2.86312 30.5 2.86312ZM21.4269 14.6681C21.0744 14.6587 20.7238 14.6681 20.3619 14.6775C17.9113 14.8256 16.4375 15.9769 16.0269 18.36C15.7438 20.0306 15.7925 21.7275 15.6744 23.4075C15.6369 24.2775 15.5487 25.1475 15.3819 25.995C15.05 27.5194 14.3975 27.9975 12.845 28.0744C12.6369 28.095 12.4325 28.1344 12.2375 28.1812V31.8338C15.05 31.9706 15.4325 32.9681 15.6556 35.9062C15.7456 36.9806 15.6275 38.0569 15.695 39.1294C15.7456 40.1475 15.8806 41.1525 16.085 42.1294C16.73 44.8144 19.3569 45.7125 22.5219 45.1744V41.9625C22.0119 41.9625 21.5638 41.9719 21.1344 41.9625C20.0488 41.9325 19.6494 41.6606 19.5519 40.6256C19.4038 39.2887 19.445 37.9312 19.3663 36.5831C19.1994 34.0725 18.9256 31.6125 16.4769 30.0206C17.7369 29.0925 18.6538 27.9881 18.9369 26.5237C19.1413 25.4981 19.2688 24.4631 19.3475 23.4281C19.4263 22.3931 19.3006 21.3281 19.3869 20.3025C19.5312 18.6431 19.64 17.9606 21.6313 18.0281C21.9331 18.0281 22.2256 17.9888 22.5594 17.9606V14.6888C22.16 14.6888 21.7888 14.6794 21.4269 14.6681ZM40.4131 14.6981C39.7288 14.6775 39.0462 14.7281 38.3712 14.8463V18.0281C38.9881 18.0281 39.4663 18.0281 39.9331 18.0375C40.7563 18.0469 41.3806 18.3694 41.4575 19.2769C41.5344 20.1075 41.5344 20.9475 41.6131 21.7875C41.78 23.4675 41.8681 25.155 42.1606 26.8069C42.4156 28.1644 43.3531 29.1788 44.5138 30.0188C42.4738 31.3856 41.8681 33.3487 41.7706 35.5556C41.7106 37.0575 41.6731 38.5837 41.5962 40.1062C41.5269 41.4937 41.0394 41.9419 39.6406 41.9719C39.2506 41.9925 38.87 42.0225 38.4406 42.0488V45.3113C39.2506 45.3113 40.0025 45.3619 40.7562 45.3113C43.0794 45.1744 44.4969 44.0419 44.9544 41.7769C45.1494 40.5375 45.2675 39.2775 45.2975 38.0175C45.3744 36.8644 45.365 35.7019 45.4831 34.56C45.6575 32.7731 46.4806 32.0306 48.2656 31.9144C48.4325 31.8937 48.5975 31.8544 48.7663 31.8075V28.1456C48.4644 28.1062 48.2581 28.0763 48.0331 28.0688C46.6962 28.0088 46.0306 27.5588 45.6875 26.2913C45.4831 25.4794 45.3556 24.6487 45.3181 23.8087C45.2206 22.2656 45.23 20.7037 45.1325 19.1606C44.9281 16.1831 43.1375 14.775 40.4131 14.6981ZM23.1856 27.8906C20.5006 27.8906 20.3056 31.845 22.97 32.1H23.1181C24.26 32.1675 25.2387 31.2994 25.3062 30.1556V30.0412C25.3269 28.8787 24.3988 27.9112 23.2363 27.8906H23.1856ZM30.4606 27.8906C29.3488 27.8531 28.4113 28.7306 28.37 29.8463C28.37 29.9138 28.37 29.9719 28.3794 30.0412C28.3794 31.3012 29.24 32.1019 30.53 32.1019C31.7994 32.1019 32.6 31.2712 32.6 29.9719C32.5906 28.7119 31.7394 27.8813 30.4606 27.8925V27.8906ZM37.8631 27.8906C36.6931 27.87 35.7163 28.8 35.675 29.9812C35.675 31.1531 36.6219 32.1019 37.805 32.1019H37.8256C38.8887 32.2875 39.9538 31.2619 40.0231 30.0319C40.0813 28.89 39.0463 27.8925 37.8631 27.8925V27.8906Z"
      fill="#F6FBF4"
    />
  </g>
  <defs>
    <clipPath id="clip0_1_282">
      <rect
        width="60"
        height="60"
        fill="white"
        transform="translate(0.5)"
      />
    </clipPath>
  </defs>
</svg>