<svg width="61" height="60" viewBox="0 0 61 60" xmlns="http://www.w3.org/2000/svg">
  <g id="typescript_svgrepo.com" clip-path="url(#clip0_1_267)">
    <path
      id="Vector"
      d="M0.5 30V60H60.5V0H0.5V30ZM48.8487 27.6075C50.3731 27.9881 51.5338 28.6725 52.6081 29.775C53.1556 30.36 53.975 31.4344 54.0444 31.6988C54.0631 31.7775 51.4569 33.525 49.8744 34.5019C49.8163 34.5412 49.5819 34.2975 49.3269 33.915C48.5563 32.7919 47.7444 32.3044 46.505 32.2162C44.6881 32.0981 43.5163 33.0469 43.5256 34.6388C43.5163 35.0288 43.6044 35.4206 43.7788 35.7619C44.18 36.5925 44.9319 37.0894 47.255 38.0963C51.5525 39.9413 53.3881 41.1619 54.53 42.8906C55.8087 44.8238 56.0919 47.91 55.2331 50.2144C54.2769 52.7044 51.9125 54.4031 48.5919 54.96C47.5663 55.1456 45.125 55.1156 44.0206 54.9112C41.6094 54.4819 39.3237 53.2894 37.9175 51.7275C37.3606 51.1219 36.2862 49.53 36.3556 49.4231C36.3856 49.3837 36.6294 49.2281 36.9031 49.0706C37.1769 48.9131 38.1819 48.3281 39.1306 47.7806L40.8594 46.7756L41.2213 47.3119C41.7294 48.0825 42.8319 49.1381 43.4975 49.4887C45.4119 50.505 48.0388 50.3588 49.3381 49.1963C49.865 48.7575 50.1594 48.0825 50.12 47.4C50.12 46.7063 50.0319 46.395 49.67 45.8756C49.2013 45.2119 48.2544 44.6456 45.5487 43.4738C42.4531 42.135 41.1144 41.3156 39.905 39.9975C39.1438 39.1275 38.5775 38.1037 38.255 36.9994C38.03 36.15 37.9719 34.02 38.1481 33.1706C38.7838 30.1725 41.0488 28.0931 44.3 27.4781C45.3556 27.2737 47.8156 27.3506 48.8506 27.6056L48.8487 27.6075ZM34.7675 30.1181L34.7862 32.5688H26.9731V54.7669H21.4456V32.5688H13.6438V30.1669C13.6438 28.8281 13.6738 27.7162 13.7113 27.6862C13.7413 27.6469 18.4869 27.6281 24.2488 27.6375L34.7375 27.6675L34.7675 30.1181Z"
      fill="#F6FBF4"
    />
  </g>
  <defs>
    <clipPath id="clip0_1_267">
      <rect
        width="60"
        height="60"
        fill="white"
        transform="translate(0.5)"
      />
    </clipPath>
  </defs>
</svg>